<svg width="33" height="30" viewBox="0 0 33 30" fill="none" xmlns="http://www.w3.org/2000/svg">
<g filter="url(#filter0_d_2_476)">
<ellipse cx="16.5068" cy="11.2809" rx="12.4932" ry="10.7189" fill="#FFB400"/>
<g clip-path="url(#clip0_2_476)">
<path d="M21.3589 11.0579C21.3091 10.2377 20.9766 9.44863 20.4036 8.79074C20.229 8.95208 20.0424 9.1035 19.8449 9.24406C19.2382 9.67646 18.5601 10.0294 17.8329 10.2914C17.9343 10.4738 18.0272 10.6504 18.1092 10.8171V10.8187C18.1323 10.8653 18.1546 10.9122 18.176 10.9594C19.0955 10.8708 20.0647 10.9031 21.0042 11.012C21.1293 11.0266 21.2472 11.0422 21.3589 11.0579V11.0579ZM15.6593 7.17599C16.2512 7.89149 16.797 8.63424 17.2942 9.4009C18.0369 9.14975 18.6509 8.83295 19.1453 8.48019C19.3169 8.35886 19.4784 8.22741 19.6287 8.0868C18.7548 7.45617 17.6491 7.11103 16.5071 7.11242C16.2229 7.11226 15.9393 7.13335 15.6593 7.17547V7.17599ZM11.8023 10.2372C12.2161 10.2282 12.6293 10.2069 13.0412 10.1731C14.037 10.0967 15.0243 9.95348 15.994 9.74479C15.4872 8.98937 14.94 8.25443 14.3542 7.54229C13.7285 7.80824 13.1768 8.18653 12.7365 8.65151C12.2962 9.11649 11.9776 9.65728 11.8023 10.2372ZM12.7315 13.9044C12.9672 13.6089 13.2769 13.2765 13.688 12.9149C14.571 12.1385 15.6132 11.5341 16.8193 11.2006L16.8569 11.1912C16.7567 11.0016 16.6626 10.8322 16.5679 10.6728C15.4529 10.9516 14.2783 11.1256 13.108 11.2157C12.5372 11.26 12.0252 11.2793 11.6487 11.2824C11.6476 12.2373 12.0303 13.1633 12.7321 13.9044H12.7315ZM18.3321 15.1445C18.0979 14.1312 17.7664 13.1362 17.341 12.1698C16.1251 12.5486 15.1565 13.1025 14.4077 13.7632C14.1055 14.0249 13.8373 14.3141 13.6079 14.6255C14.4452 15.1616 15.4624 15.4506 16.5071 15.4493C17.1326 15.4501 17.7523 15.3469 18.3321 15.1455V15.1445ZM19.4696 14.5844C20.4177 13.959 21.0637 13.0554 21.2836 12.0468C21.0771 12.0025 20.8154 11.9582 20.5275 11.9238C19.8875 11.8448 19.2381 11.839 18.5963 11.9067C18.9577 12.7814 19.2494 13.6762 19.4696 14.5849V14.5844ZM16.5071 16.4914C13.153 16.4914 10.4341 14.1587 10.4341 11.2809C10.4341 8.40308 13.153 6.07031 16.5071 6.07031C19.8613 6.07031 22.5802 8.40308 22.5802 11.2809C22.5802 14.1587 19.8613 16.4914 16.5071 16.4914Z" fill="#2B2B2B"/>
</g>
</g>
<defs>
<filter id="filter0_d_2_476" x="0.0136719" y="0.562012" width="32.9863" height="29.4375" filterUnits="userSpaceOnUse" color-interpolation-filters="sRGB">
<feFlood flood-opacity="0" result="BackgroundImageFix"/>
<feColorMatrix in="SourceAlpha" type="matrix" values="0 0 0 0 0 0 0 0 0 0 0 0 0 0 0 0 0 0 127 0" result="hardAlpha"/>
<feOffset dy="4"/>
<feGaussianBlur stdDeviation="2"/>
<feComposite in2="hardAlpha" operator="out"/>
<feColorMatrix type="matrix" values="0 0 0 0 0 0 0 0 0 0 0 0 0 0 0 0 0 0 0.25 0"/>
<feBlend mode="normal" in2="BackgroundImageFix" result="effect1_dropShadow_2_476"/>
<feBlend mode="normal" in="SourceGraphic" in2="effect1_dropShadow_2_476" result="shape"/>
</filter>
<clipPath id="clip0_2_476">
<rect width="14.5753" height="12.5053" fill="white" transform="translate(9.21924 5.02832)"/>
</clipPath>
</defs>
</svg>
