<svg width="26" height="22" viewBox="0 0 26 22" fill="none" xmlns="http://www.w3.org/2000/svg">
<ellipse cx="13.0957" cy="11.2809" rx="12.4932" ry="10.7189" fill="#FFB400"/>
<g clip-path="url(#clip0_2_460)">
<path d="M13.096 6.07031C14.7461 6.07031 14.9519 6.07552 15.5993 6.10158C16.2461 6.12763 16.6864 6.21464 17.0739 6.34387C17.4747 6.47621 17.8123 6.65546 18.15 6.94464C18.4588 7.20512 18.6978 7.5202 18.8502 7.86795C19.0002 8.19987 19.1023 8.57815 19.1326 9.13308C19.1612 9.68852 19.1691 9.86516 19.1691 11.2809C19.1691 12.6966 19.163 12.8732 19.1326 13.4287C19.1023 13.9836 19.0002 14.3613 18.8502 14.6938C18.6982 15.0417 18.4592 15.3569 18.15 15.6171C17.8463 15.882 17.4791 16.087 17.0739 16.2179C16.687 16.3466 16.2461 16.4341 15.5993 16.4602C14.9519 16.4846 14.7461 16.4914 13.096 16.4914C11.446 16.4914 11.2401 16.4862 10.5927 16.4602C9.94591 16.4341 9.50562 16.3466 9.11815 16.2179C8.71267 16.0873 8.34537 15.8823 8.04201 15.6171C7.73314 15.3567 7.49418 15.0416 7.34178 14.6938C7.19117 14.3619 7.08975 13.9836 7.05939 13.4287C7.03084 12.8732 7.02295 12.6966 7.02295 11.2809C7.02295 9.86516 7.02902 9.68852 7.05939 9.13308C7.08975 8.57763 7.19117 8.20039 7.34178 7.86795C7.49375 7.51998 7.73277 7.20482 8.04201 6.94464C8.34546 6.67955 8.71273 6.47451 9.11815 6.34387C9.50562 6.21464 9.94531 6.12763 10.5927 6.10158C11.2401 6.07709 11.446 6.07031 13.096 6.07031ZM13.096 8.67559C12.2907 8.67559 11.5183 8.95007 10.9489 9.43866C10.3794 9.92724 10.0595 10.5899 10.0595 11.2809C10.0595 11.9718 10.3794 12.6345 10.9489 13.1231C11.5183 13.6117 12.2907 13.8861 13.096 13.8861C13.9013 13.8861 14.6737 13.6117 15.2432 13.1231C15.8126 12.6345 16.1325 11.9718 16.1325 11.2809C16.1325 10.5899 15.8126 9.92724 15.2432 9.43866C14.6737 8.95007 13.9013 8.67559 13.096 8.67559V8.67559ZM17.0435 8.54533C17.0435 8.37258 16.9635 8.20692 16.8212 8.08477C16.6788 7.96263 16.4857 7.89401 16.2844 7.89401C16.083 7.89401 15.8899 7.96263 15.7476 8.08477C15.6052 8.20692 15.5252 8.37258 15.5252 8.54533C15.5252 8.71807 15.6052 8.88373 15.7476 9.00588C15.8899 9.12802 16.083 9.19664 16.2844 9.19664C16.4857 9.19664 16.6788 9.12802 16.8212 9.00588C16.9635 8.88373 17.0435 8.71807 17.0435 8.54533ZM13.096 9.7177C13.5792 9.7177 14.0426 9.88239 14.3843 10.1755C14.726 10.4687 14.9179 10.8663 14.9179 11.2809C14.9179 11.6954 14.726 12.093 14.3843 12.3862C14.0426 12.6793 13.5792 12.844 13.096 12.844C12.6128 12.844 12.1494 12.6793 11.8077 12.3862C11.466 12.093 11.2741 11.6954 11.2741 11.2809C11.2741 10.8663 11.466 10.4687 11.8077 10.1755C12.1494 9.88239 12.6128 9.7177 13.096 9.7177V9.7177Z" fill="#2B2B2B"/>
</g>
<defs>
<clipPath id="clip0_2_460">
<rect width="14.5753" height="12.5053" fill="white" transform="translate(5.80811 5.02832)"/>
</clipPath>
</defs>
</svg>
