<svg width="26" height="22" viewBox="0 0 26 22" fill="none" xmlns="http://www.w3.org/2000/svg">
<ellipse cx="13.3013" cy="11.2809" rx="12.4932" ry="10.7189" fill="#FFB400"/>
<g clip-path="url(#clip0_2_468)">
<path d="M10.2285 7.63345C10.2284 7.90984 10.1003 8.17485 9.87236 8.37018C9.64446 8.56552 9.33546 8.67518 9.01332 8.67504C8.69119 8.6749 8.38231 8.56498 8.15464 8.36945C7.92697 8.17392 7.79916 7.9088 7.79932 7.63241C7.79948 7.35603 7.9276 7.09102 8.1555 6.89568C8.3834 6.70034 8.6924 6.59068 9.01454 6.59082C9.33667 6.59096 9.64555 6.70088 9.87322 6.89642C10.1009 7.09195 10.2287 7.35707 10.2285 7.63345V7.63345ZM10.265 9.44672H7.83575V15.9703H10.265V9.44672ZM14.1032 9.44672H11.6861V15.9703H14.0789V12.547C14.0789 10.6399 16.9757 10.4628 16.9757 12.547V15.9703H19.3746V11.8384C19.3746 8.62346 15.087 8.7433 14.0789 10.3221L14.1032 9.44672V9.44672Z" fill="#2B2B2B"/>
</g>
<defs>
<clipPath id="clip0_2_468">
<rect width="14.5753" height="12.5053" fill="white" transform="translate(6.01367 5.02832)"/>
</clipPath>
</defs>
</svg>
