<svg width="26" height="22" viewBox="0 0 26 22" fill="none" xmlns="http://www.w3.org/2000/svg">
<ellipse cx="12.6987" cy="11.2809" rx="12.4932" ry="10.7189" fill="#FFB400"/>
<g clip-path="url(#clip0_2_464)">
<path d="M18.8704 7.97535C18.4068 8.1513 17.9151 8.26686 17.4117 8.3182C17.9423 8.04591 18.3395 7.61739 18.5291 7.11248C18.0311 7.36675 17.4852 7.54495 16.9161 7.64135C16.5339 7.29046 16.0272 7.05775 15.4749 6.97939C14.9227 6.90104 14.3557 6.98143 13.8621 7.20807C13.3686 7.43471 12.9761 7.7949 12.7458 8.23264C12.5155 8.67038 12.4602 9.16115 12.5884 9.62865C11.5786 9.58523 10.5906 9.36006 9.68873 8.96778C8.78686 8.5755 7.99122 8.02487 7.35347 7.35164C7.12772 7.68431 7.0091 8.06248 7.00973 8.44742C7.00973 9.20295 7.45792 9.87042 8.13932 10.2612C7.73607 10.2503 7.3417 10.1569 6.98908 9.9887V10.0158C6.9892 10.519 7.19215 11.0066 7.5635 11.3961C7.93486 11.7856 8.45177 12.0529 9.02659 12.1526C8.65226 12.2397 8.25975 12.2525 7.87879 12.1902C8.04086 12.6233 8.35674 13.0021 8.78221 13.2735C9.20768 13.5449 9.72143 13.6954 10.2515 13.7038C9.72468 14.0588 9.12144 14.3213 8.4763 14.4761C7.83116 14.631 7.15678 14.6752 6.4917 14.6063C7.65268 15.2469 9.00418 15.587 10.3845 15.5859C15.0565 15.5859 17.6115 12.2652 17.6115 9.38532C17.6115 9.29153 17.6084 9.1967 17.6036 9.10395C18.1009 8.79557 18.5301 8.41356 18.871 7.97587L18.8704 7.97535Z" fill="#2B2B2B"/>
</g>
<defs>
<clipPath id="clip0_2_464">
<rect width="14.5753" height="12.5053" fill="white" transform="translate(5.41113 5.02832)"/>
</clipPath>
</defs>
</svg>
