<svg width="26" height="22" viewBox="0 0 26 22" fill="none" xmlns="http://www.w3.org/2000/svg">
<ellipse cx="12.9043" cy="11.2809" rx="12.4932" ry="10.7189" fill="#FFB400"/>
<g clip-path="url(#clip0_2_472)">
<path d="M18.6996 8.4139C18.9772 9.34242 18.9772 11.2807 18.9772 11.2807C18.9772 11.2807 18.9772 13.2191 18.6996 14.1476C18.5454 14.6608 18.0941 15.0647 17.5227 15.2012C16.4848 15.4492 12.9041 15.4492 12.9041 15.4492C12.9041 15.4492 9.32526 15.4492 8.28555 15.2012C7.71165 15.0626 7.26103 14.6593 7.10859 14.1476C6.83105 13.2191 6.83105 11.2807 6.83105 11.2807C6.83105 11.2807 6.83105 9.34242 7.10859 8.4139C7.26285 7.90066 7.71408 7.49684 8.28555 7.36033C9.32526 7.1123 12.9041 7.1123 12.9041 7.1123C12.9041 7.1123 16.4848 7.1123 17.5227 7.36033C18.0966 7.49893 18.5472 7.90222 18.6996 8.4139V8.4139ZM11.6895 13.1044L15.3333 11.2807L11.6895 9.45705V13.1044Z" fill="#2B2B2B"/>
</g>
<defs>
<clipPath id="clip0_2_472">
<rect width="14.5753" height="12.5053" fill="white" transform="translate(5.61621 5.02832)"/>
</clipPath>
</defs>
</svg>
